<?xml version="1.0"?>
<svg xmlns="http://www.w3.org/2000/svg" xmlns:xlink="http://www.w3.org/1999/xlink" version="1.1" id="Capa_1" x="0px" y="0px" viewBox="0 0 480 480" style="enable-background:new 0 0 480 480;" xml:space="preserve" width="512px" height="512px" class=""><g><g>
	<g>
		<path d="M436.288,192.976L278.464,35.152C256.008,12.569,225.448-0.09,193.6,0H72C49.92,0.027,32.027,17.92,32,40v432    c0,4.418,3.582,8,8,8h235.504c20.492-0.001,39.347-11.194,49.16-29.184c21.679-39.783,54.369-72.473,94.152-94.152    c17.99-9.813,29.183-28.668,29.184-49.16v-86.248C448.03,210.644,443.813,200.46,436.288,192.976z M432,307.504    c0.001,14.64-7.995,28.111-20.848,35.12c-42.483,23.14-77.388,58.045-100.528,100.528c-7.01,12.853-20.48,20.849-35.12,20.848H48    V40c0-13.255,10.745-24,24-24h121.6c27.599-0.075,54.082,10.895,73.544,30.464l157.832,157.824    c4.483,4.511,7.007,10.608,7.024,16.968V307.504z" data-original="#000000" class="active-path" data-old_color="#000000" fill="#7F8FA4"/>
	</g>
</g><g>
	<g>
		<path d="M397.656,202.344L253.088,57.776C236.622,41.218,214.216,31.937,190.864,32H88c-13.255,0-24,10.745-24,24v152    c0,4.418,3.582,8,8,8h320c3.235,0.001,6.153-1.947,7.392-4.936C400.631,208.074,399.945,204.632,397.656,202.344z M272,200H80V56    c0-4.418,3.582-8,8-8h102.864c19.106-0.052,37.439,7.541,50.912,21.088L272,99.312V200z M288,200v-84.688L372.688,200H288z" data-original="#000000" class="active-path" data-old_color="#000000" fill="#7F8FA4"/>
	</g>
</g><g>
	<g>
		<path d="M376,240h-48c-13.255,0-24,10.745-24,24c0,13.255,10.745,24,24,24h48c13.255,0,24-10.745,24-24    C400,250.746,389.255,240,376,240z M376,272h-48c-4.418,0-8-3.582-8-8s3.582-8,8-8h48c4.418,0,8,3.582,8,8S380.418,272,376,272z" data-original="#000000" class="active-path" data-old_color="#000000" fill="#7F8FA4"/>
	</g>
</g></g> </svg>
