<?xml version="1.0"?>
<svg xmlns="http://www.w3.org/2000/svg" xmlns:xlink="http://www.w3.org/1999/xlink" version="1.1" id="Capa_1" x="0px" y="0px" viewBox="0 0 512 512" style="enable-background:new 0 0 512 512;" xml:space="preserve" width="512px" height="512px"><g><g>
	<g>
		<g>
			<path d="M485.26,295.844l-93.902-15.652l30.35-45.525H480c5.896,0,10.667-4.771,10.667-10.667s-4.771-10.667-10.667-10.667h-64     c-3.563,0-6.896,1.781-8.875,4.75l-33.792,50.688l-24.292-36.438c-7.927-11.896-21.198-19-35.5-19h-157.75     c-14.302,0-27.573,7.104-35.5,19l-30.875,46.323l-65.188,16.292C9.969,298.51,0,311.281,0,325.99v53.594     c0,12.573,4.896,24.396,13.792,33.292c8.896,8.896,20.719,13.792,33.292,13.792h27.583c0.375,0,0.693-0.176,1.057-0.214     c4.876,24.415,26.449,42.88,52.276,42.88s47.4-18.465,52.276-42.88c0.365,0.038,0.682,0.214,1.057,0.214H320     c0.375,0,0.693-0.176,1.057-0.214c4.876,24.415,26.449,42.88,52.276,42.88c25.827,0,47.4-18.465,52.276-42.88     c0.365,0.038,0.682,0.214,1.057,0.214h46.74c8.146,0,15.458-4.521,19.083-11.792l17.26-34.521     c0.375-0.75,0.656-1.542,0.844-2.354l1.125-4.771c0.188-0.792,0.281-1.604,0.281-2.417v-43.406     C512,311.698,500.76,298.417,485.26,295.844z M128,448c-17.646,0-32-14.354-32-32c0-17.646,14.354-32,32-32s32,14.354,32,32     C160,433.646,145.646,448,128,448z M334.333,320H138.667c-3.75,0-7.219-1.969-9.146-5.188c-1.927-3.219-2.031-7.208-0.26-10.51     l22.833-42.667c1.854-3.469,5.469-5.635,9.406-5.635h146.333c3.688,0,7.115,1.906,9.063,5.042l26.5,42.667     c2.042,3.292,2.146,7.427,0.26,10.813C341.771,317.906,338.208,320,334.333,320z M373.333,448c-17.646,0-32-14.354-32-32     c0-17.646,14.354-32,32-32c17.646,0,32,14.354,32,32C405.333,433.646,390.979,448,373.333,448z" data-original="#000000" class="active-path" data-old_color="#000000" fill="#7F8FA4"/>
			<path d="M341.333,192c5.896,0,10.667-4.771,10.667-10.667V160c0-5.896-4.771-10.531-10.656-10.531     c10.646-1.521,19.76-8.219,24.375-17.917c4.625-9.698,4.083-20.99-1.438-30.229c-1.083-1.813-1.615-3.552-1.615-5.323     c0.01-9.219,13.26-14.146,19.125-6.25c5.073,6.781,12.792,11.344,21.229,12.531c8.479,1.104,17.073-1.104,23.646-6.281     c0,17.646,14.354,32,32,32c5.885,0,10.667,4.781,10.667,10.667c0,5.885-4.781,10.667-10.667,10.667     c-5.896,0-10.667,4.771-10.667,10.667v21.333c0,5.896,4.771,10.667,10.667,10.667C488.073,192,512,168.073,512,138.667     c0-26.156-18.927-47.979-43.802-52.479c-4.448-18.813-21.385-32.854-41.531-32.854c-5.948,0-11.74,1.25-17.125,3.656     c-9.792-9.188-22.563-14.323-36.208-14.323C343.927,42.667,320,66.594,320,96c0,5.156,0.792,10.313,2.323,15.292     c-14.094,7.052-23.656,21.656-23.656,38.042C298.667,172.865,317.802,192,341.333,192z" data-original="#000000" class="active-path" data-old_color="#000000" fill="#7F8FA4"/>
		</g>
	</g>
</g></g> </svg>
