<?xml version="1.0"?>
<svg xmlns="http://www.w3.org/2000/svg" id="Capa_1" enable-background="new 0 0 512 512" height="512px" viewBox="0 0 512 512" width="512px"><g><g><g><path d="m161 186.719c-21.615 2.752-41.636 6.451-59.363 11.009-6.866 18.129-10.637 37.767-10.637 58.272 0 15.594 2.176 30.69 6.238 45h63.762z" data-original="#000000" class="active-path" data-old_color="#000000" fill="#7F8FA4"/><path d="m201 361v50.562c17.212 6.103 35.722 9.438 55 9.438s37.788-3.334 55-9.438v-50.562z" data-original="#000000" class="active-path" data-old_color="#000000" fill="#7F8FA4"/><path d="m410.363 197.728c-17.746-4.563-37.791-8.265-59.432-11.018l-.239 114.29h64.07c4.062-14.31 6.238-29.406 6.238-45 0-20.505-3.771-40.143-10.637-58.272z" data-original="#000000" class="active-path" data-old_color="#000000" fill="#7F8FA4"/></g><path d="m256 181c-22.387 0-44.222.892-65 2.597v122.418c6.068 4.566 10 11.825 10 19.986v5h110v-5c0-8.016 3.797-15.157 9.681-19.735l.256-122.674c-20.759-1.702-42.573-2.592-64.937-2.592zm0 85c-8.284 0-15-6.716-15-15s6.716-15 15-15 15 6.716 15 15-6.716 15-15 15z" data-original="#000000" class="active-path" data-old_color="#000000" fill="#7F8FA4"/><path d="m256 512c-68.38 0-132.667-26.629-181.02-74.98-48.351-48.353-74.98-112.64-74.98-181.02s26.629-132.667 74.98-181.02c48.353-48.351 112.64-74.98 181.02-74.98s132.667 26.629 181.02 74.98c48.351 48.353 74.98 112.64 74.98 181.02s-26.629 132.667-74.98 181.02c-48.353 48.351-112.64 74.98-181.02 74.98zm0-451c-107.524 0-195 87.476-195 195s87.476 195 195 195 195-87.476 195-195-87.476-195-195-195z" data-original="#000000" class="active-path" data-old_color="#000000" fill="#7F8FA4"/></g></g> </svg>
